<svg width="20" height="20" viewBox="0 0 20 20" fill="none" xmlns="http://www.w3.org/2000/svg">
<path d="M9.994 4.921C9.386 4.9235 8.8855 5.364 8.8535 5.9245H6.467C6.467 4.1425 8.046 2.5315 9.994 2.5315C11.942 2.5315 13.521 4.1425 13.521 5.9245H11.139C11.107 5.362 10.604 4.921 9.994 4.921ZM9.994 4.921V3.495M7.514 3.546L7.9425 3.9745M12.474 3.546L12.0455 3.9745M9.994 11.6765V14.65M11.481 13.1635H8.507M9.994 1C8.554 1.001 7.2265 1.564 6.52 2.4735H3C2.46957 2.4735 1.96086 2.68421 1.58579 3.05929C1.21071 3.43436 1 3.94307 1 4.4735V17.5C1 18.0304 1.21071 18.5391 1.58579 18.9142C1.96086 19.2893 2.46957 19.5 3 19.5H16.9885C17.5189 19.5 18.0276 19.2893 18.4027 18.9142C18.7778 18.5391 18.9885 18.0304 18.9885 17.5V4.4735C18.9885 3.94307 18.7778 3.43436 18.4027 3.05929C18.0276 2.68421 17.5189 2.4735 16.9885 2.4735H13.4725C12.7655 1.5635 11.436 1 9.994 1ZM11.985 14.7335C13.5365 13.273 13.7355 12.502 13.7355 11.512C13.7355 10.56 12.8555 9.572 11.77 9.572C10.915 9.572 10.187 10.0505 9.994 10.719C9.801 10.0505 9.0735 9.5715 8.218 9.5715C7.1325 9.5715 6.2525 10.56 6.2525 11.5115C6.2525 12.5015 6.4515 13.273 8.003 14.7335C8.781 15.466 9.325 15.8705 9.994 16.2155C10.663 15.8705 11.207 15.4655 11.985 14.7335Z" stroke="black" stroke-linecap="round" stroke-linejoin="round"/>
</svg>
