<svg width="18" height="18" viewBox="0 0 18 18" fill="none" xmlns="http://www.w3.org/2000/svg">
<path d="M16.6825 5.65209L16.6898 5.6575C16.8393 5.76783 16.9655 5.90348 17.06 6.06542C17.1646 6.24462 17.2143 6.44174 17.2143 6.64545V16.107C17.2143 16.4502 17.0863 16.7596 16.8286 16.9944C16.5745 17.2259 16.2588 17.3274 15.9236 17.3274H2.07771C1.74216 17.3274 1.42584 17.2262 1.1714 16.9944C0.913698 16.7596 0.785714 16.4502 0.785714 16.107V6.64698V6.64545H1.28571L16.6825 5.65209ZM16.6825 5.65209L16.675 5.64695M16.6825 5.65209L16.675 5.64695M16.675 5.64695L9.76548 0.924324M16.675 5.64695L9.76548 0.924324M11.1253 11.4213H11.1767V11.9213V14.3944C11.1767 14.5349 11.2281 14.6529 11.331 14.7481M11.1253 11.4213C10.857 11.3713 10.617 11.2679 10.4053 11.1109C10.1936 10.9539 10.0877 10.7407 10.0877 10.4713V8.44709C10.0877 7.95197 10.2077 7.49785 10.4477 7.08473C10.6877 6.67083 11.055 6.46388 11.5496 6.46388M11.1253 11.4213V10.9213H11.175M11.1253 11.4213L11.1767 11.1453L11.2169 10.9298C11.2033 10.9273 11.19 10.9246 11.1767 10.9217C11.1761 10.9216 11.1756 10.9214 11.175 10.9213M11.331 14.7481C11.4347 14.8426 11.5641 14.8899 11.7193 14.8899C11.8744 14.8899 12.0039 14.8426 12.1076 14.7481C12.2113 14.6537 12.2631 14.5357 12.2631 14.3944V7.10816C12.2631 6.92698 12.1946 6.7747 12.0574 6.65131C11.9203 6.52792 11.751 6.46544 11.5496 6.46388M11.331 14.7481L11.6533 14.3944L11.6677 14.3785C11.668 14.3788 11.6683 14.379 11.6685 14.3792C11.6723 14.3826 11.6746 14.3837 11.6767 14.3845M11.331 14.7481L11.6587 14.3944L11.6703 14.3819C11.6713 14.3836 11.6725 14.3858 11.6736 14.3884C11.6746 14.3906 11.6753 14.3927 11.6758 14.3944C11.6763 14.3958 11.6766 14.3971 11.6767 14.398C11.6771 14.3999 11.6767 14.3989 11.6767 14.3944V14.3845M11.5496 6.46388L11.5457 6.96387C11.5463 6.96387 11.5469 6.96388 11.5474 6.96388M11.5496 6.46388V6.96388C11.5489 6.96388 11.5481 6.96388 11.5474 6.96388M11.5474 6.96388C11.6377 6.96489 11.6856 6.98931 11.723 7.02301C11.7569 7.05355 11.7631 7.07167 11.7631 7.10816V14.384M11.5474 6.96388C11.225 6.9644 11.0268 7.08274 10.8803 7.33554L10.8801 7.3359C10.686 7.66989 10.5877 8.03685 10.5877 8.44709V10.4713C10.5877 10.5865 10.6219 10.649 10.7031 10.7092C10.8409 10.8114 10.9964 10.8824 11.175 10.9213M11.7631 14.384C11.7625 14.3843 11.7619 14.3845 11.7613 14.3848C11.7579 14.386 11.7457 14.3899 11.7193 14.3899C11.6929 14.3899 11.6806 14.386 11.6773 14.3848C11.6771 14.3847 11.6769 14.3846 11.6767 14.3845M11.7631 14.384V14.3944C11.7631 14.399 11.7627 14.4 11.7631 14.3979C11.7633 14.397 11.7636 14.3958 11.764 14.3944C11.7646 14.3925 11.7654 14.3901 11.7666 14.3876C11.7681 14.384 11.7698 14.3811 11.7712 14.379C11.7716 14.3784 11.7719 14.3779 11.7722 14.3774C11.7737 14.3754 11.7737 14.3759 11.7708 14.3785C11.7673 14.3818 11.7651 14.3831 11.7631 14.384ZM11.175 10.9213H11.1767H11.6767V11.4213V14.3845M9.76548 0.924324C9.54133 0.752349 9.27847 0.671417 9 0.671417C8.72185 0.671417 8.45903 0.752191 8.23527 0.924685L9.76548 0.924324ZM2.07776 17.4988H2.07771C1.62537 17.4988 1.2581 17.3564 0.947845 17.0732C0.638107 16.7904 0.500705 16.4766 0.5 16.1077V6.64662C0.5 6.43275 0.551568 6.23161 0.659179 6.03609C0.767297 5.83965 0.915084 5.67833 1.10881 5.54858L1.10883 5.54861L1.11358 5.54535L8.03715 0.791736L8.03716 0.791748L8.04029 0.789566C8.31437 0.598295 8.62734 0.5 8.99614 0.5C9.36494 0.5 9.68179 0.59834 9.96242 0.791444L9.9629 0.791769L16.8865 5.54421L16.8864 5.54424L16.8918 5.54784C17.0857 5.67727 17.2329 5.83829 17.3399 6.03448L17.3408 6.03609C17.4484 6.23161 17.5 6.43275 17.5 6.64662V16.1082C17.5 16.4785 17.3627 16.792 17.0529 17.0736C16.7412 17.357 16.3737 17.4994 15.9229 17.5C15.9229 17.5 15.9229 17.5 15.9229 17.5L2.07776 17.4988ZM7.911 10.4258H7.411V10.9258V14.3843C7.41058 14.3845 7.41016 14.3846 7.40976 14.3848C7.40616 14.3861 7.39404 14.3899 7.36843 14.3899C7.34207 14.3899 7.32948 14.386 7.32564 14.3846C7.32528 14.3845 7.32493 14.3843 7.32457 14.3842V10.9258V10.4258H6.82457C6.48796 10.4258 6.22494 10.3228 6.00546 10.1228C5.94023 10.0634 5.88602 10.002 5.84209 9.93811H6.28071H6.82457H7.32457V9.43811V6.97093C7.32522 6.97063 7.32583 6.9704 7.32645 6.97017C7.32976 6.96896 7.34204 6.96505 7.36843 6.96505C7.39482 6.96505 7.40709 6.96896 7.4104 6.97017C7.41103 6.9704 7.41164 6.97063 7.41229 6.97092V9.43811V9.93811H7.91229H8.45614H8.89477C8.85084 10.002 8.79663 10.0634 8.7314 10.1228C8.51211 10.3226 8.24874 10.4258 7.911 10.4258ZM7.41967 14.379C7.42083 14.3774 7.42112 14.3773 7.41983 14.3786C7.41948 14.379 7.41903 14.3794 7.41845 14.3799L7.41879 14.3803C7.41909 14.3798 7.41939 14.3794 7.41967 14.379ZM5.78071 9.43811V9.83398C5.72079 9.71329 5.693 9.58279 5.693 9.43811V6.97102C5.70078 6.96778 5.71369 6.96505 5.73686 6.96505C5.76247 6.96505 5.77459 6.96886 5.77819 6.97017C5.77899 6.97047 5.77982 6.97079 5.78071 6.97121V9.43811ZM9.04386 9.43811C9.04386 9.58279 9.01607 9.71329 8.95614 9.83399V9.43811V6.97093C8.95679 6.97063 8.9574 6.9704 8.95803 6.97017C8.96133 6.96896 8.97361 6.96505 9 6.96505C9.02639 6.96505 9.03867 6.96896 9.04197 6.97017C9.0426 6.9704 9.04321 6.97063 9.04386 6.97093V9.43811Z" stroke="#5BA2FE"/>
</svg>
