<svg width="23" height="14" viewBox="0 0 23 14" fill="none" xmlns="http://www.w3.org/2000/svg">
<path d="M2.25 1C2.25 0.585786 1.91421 0.25 1.5 0.25C1.08579 0.25 0.75 0.585786 0.75 1H2.25ZM0.75 13C0.75 13.4142 1.08579 13.75 1.5 13.75C1.91421 13.75 2.25 13.4142 2.25 13H0.75ZM20.75 13C20.75 13.4142 21.0858 13.75 21.5 13.75C21.9142 13.75 22.25 13.4142 22.25 13H20.75ZM21.22 6.849L21.928 6.60151L21.9279 6.60134L21.22 6.849ZM18.15 3.78L17.9022 4.48789L17.9026 4.48801L18.15 3.78ZM12.839 3.612L12.5919 2.90387L12.5912 2.90411L12.839 3.612ZM11.612 4.839L10.9041 4.59123L10.9039 4.59192L11.612 4.839ZM10.75 11C10.75 11.4142 11.0858 11.75 11.5 11.75C11.9142 11.75 12.25 11.4142 12.25 11H10.75ZM1.5 10.25C1.08579 10.25 0.75 10.5858 0.75 11C0.75 11.4142 1.08579 11.75 1.5 11.75V10.25ZM21.5 11.75C21.9142 11.75 22.25 11.4142 22.25 11C22.25 10.5858 21.9142 10.25 21.5 10.25V11.75ZM9 6H8.25H9ZM0.75 1V13H2.25V1H0.75ZM22.25 13V10.643H20.75V13H22.25ZM22.25 10.643C22.25 8.71082 22.2606 7.55301 21.928 6.60151L20.512 7.09649C20.7394 7.74699 20.75 8.58518 20.75 10.643H22.25ZM21.9279 6.60134C21.6425 5.78554 21.1769 5.04458 20.5657 4.43354L19.5052 5.49438C19.957 5.94601 20.3011 6.49368 20.5121 7.09666L21.9279 6.60134ZM20.5657 4.43354C19.9544 3.82251 19.2133 3.35712 18.3974 3.07199L17.9026 4.48801C18.5056 4.69876 19.0534 5.04274 19.5052 5.49438L20.5657 4.43354ZM18.3978 3.07211C17.4471 2.73937 16.289 2.75 14.357 2.75V4.25C16.415 4.25 17.2529 4.26063 17.9022 4.48789L18.3978 3.07211ZM14.357 2.75C13.6216 2.75 13.0632 2.73945 12.5919 2.90387L13.0861 4.32013C13.2568 4.26055 13.4964 4.25 14.357 4.25V2.75ZM12.5912 2.90411C12.2014 3.04056 11.8472 3.26309 11.5552 3.55517L12.6158 4.61583C12.7486 4.48307 12.9096 4.38192 13.0868 4.31989L12.5912 2.90411ZM11.5552 3.55517C11.2631 3.84725 11.0406 4.20137 10.9041 4.59123L12.3199 5.08677C12.3819 4.90955 12.4831 4.74859 12.6158 4.61583L11.5552 3.55517ZM10.9039 4.59192C10.7394 5.06316 10.75 5.6226 10.75 6.357H12.25C12.25 5.4974 12.2606 5.25684 12.3201 5.08607L10.9039 4.59192ZM10.75 6.357V11H12.25V6.357H10.75ZM1.5 11.75H21.5V10.25H1.5V11.75ZM8.25 6C8.25 6.46413 8.06563 6.90925 7.73744 7.23744L8.7981 8.2981C9.40759 7.6886 9.75 6.86195 9.75 6H8.25ZM7.73744 7.23744C7.40925 7.56563 6.96413 7.75 6.5 7.75V9.25C7.36195 9.25 8.1886 8.90759 8.7981 8.2981L7.73744 7.23744ZM6.5 7.75C6.03587 7.75 5.59075 7.56563 5.26256 7.23744L4.2019 8.2981C4.8114 8.90759 5.63805 9.25 6.5 9.25V7.75ZM5.26256 7.23744C4.93437 6.90925 4.75 6.46413 4.75 6H3.25C3.25 6.86195 3.59241 7.6886 4.2019 8.2981L5.26256 7.23744ZM4.75 6C4.75 5.53587 4.93437 5.09075 5.26256 4.76256L4.2019 3.7019C3.59241 4.3114 3.25 5.13805 3.25 6H4.75ZM5.26256 4.76256C5.59075 4.43437 6.03587 4.25 6.5 4.25V2.75C5.63805 2.75 4.8114 3.09241 4.2019 3.7019L5.26256 4.76256ZM6.5 4.25C6.96413 4.25 7.40925 4.43437 7.73744 4.76256L8.7981 3.7019C8.1886 3.09241 7.36195 2.75 6.5 2.75V4.25ZM7.73744 4.76256C8.06563 5.09075 8.25 5.53587 8.25 6H9.75C9.75 5.13805 9.40759 4.3114 8.7981 3.7019L7.73744 4.76256Z" fill="#5BA2FE"/>
</svg>
