<svg width="20" height="20" viewBox="0 0 20 20" fill="none" xmlns="http://www.w3.org/2000/svg">
<path d="M13.5035 16.2625H6.9985M6.9985 14.25H13.5015M18.5285 16.5745H18.946C19.2525 16.5745 19.5 16.329 19.5 16.0225V14.4465C19.5 14.1415 19.253 13.8945 18.948 13.8945H18.5305M16.584 18.1845H17.977C18.0495 18.1847 18.1213 18.1706 18.1883 18.1429C18.2553 18.1153 18.3162 18.0747 18.3674 18.0234C18.4187 17.9722 18.4593 17.9113 18.4869 17.8443C18.5146 17.7773 18.5287 17.7055 18.5285 17.633V12.838C18.5289 12.6917 18.4712 12.5512 18.3681 12.4474C18.2649 12.3436 18.1248 12.285 17.9785 12.2845H16.586M1.9695 16.5765H1.554C1.48151 16.5768 1.40968 16.5627 1.34261 16.5352C1.27553 16.5078 1.21453 16.4673 1.16309 16.4162C1.11165 16.3652 1.07077 16.3045 1.04278 16.2376C1.0148 16.1707 1.00026 16.099 1 16.0265V14.4465C1 14.1405 1.2455 13.8945 1.554 13.8945H1.9695M3.916 18.1845H2.521C2.37473 18.1845 2.23446 18.1264 2.13103 18.023C2.0276 17.9195 1.9695 17.7793 1.9695 17.633V12.838C1.9695 12.532 2.215 12.2845 2.5215 12.2845H3.9125M8.8165 12.517H13.5015M6.9965 11.978L7.762 11.209M8.817 8.739H15.442M5.1295 8.6595L5.8345 9.3665L7.762 7.4295M8.817 4.9595H15.442M5.1295 4.8795L5.8345 5.5865L7.762 3.6515M13.502 17.9015H6.998M2.937 12.284V2.1055C2.937 1.493 3.427 1 4.0335 1H16.4685C17.077 1 17.5665 1.4915 17.5665 2.1055V12.2845M14.055 11.107C13.75 11.107 13.503 11.354 13.503 11.659V18.81C13.5027 18.8826 13.5168 18.9545 13.5445 19.0216C13.5721 19.0886 13.6128 19.1496 13.6641 19.2009C13.7154 19.2522 13.7764 19.2929 13.8434 19.3205C13.9105 19.3482 13.9824 19.3623 14.055 19.362H16.0335C16.1061 19.3623 16.178 19.3482 16.2451 19.3205C16.3121 19.2929 16.3731 19.2522 16.4244 19.2009C16.4757 19.1496 16.5164 19.0886 16.544 19.0216C16.5717 18.9545 16.5858 18.8826 16.5855 18.81V11.661C16.5858 11.5885 16.5717 11.5167 16.5442 11.4496C16.5168 11.3825 16.4763 11.3215 16.4252 11.2701C16.3742 11.2186 16.3135 11.1778 16.2466 11.1498C16.1797 11.1218 16.108 11.1073 16.0355 11.107H14.055ZM4.466 11.107H6.443C6.751 11.107 6.9965 11.3525 6.9965 11.661V18.81C6.99677 18.8827 6.98262 18.9547 6.95488 19.0219C6.92714 19.0891 6.88635 19.1501 6.83488 19.2014C6.78341 19.2528 6.72228 19.2934 6.65501 19.321C6.58775 19.3485 6.51569 19.3625 6.443 19.362H4.468C4.163 19.362 3.916 19.115 3.916 18.81V11.661C3.916 11.3545 4.162 11.107 4.468 11.107H4.466Z" stroke="#5BA2FE" stroke-linecap="round" stroke-linejoin="round"/>
</svg>
